<svg class="fero-logo" xmlns="http://www.w3.org/2000/svg" width="149.361" height="31" viewBox="0 0 149.361 31">
                  <g id="Group_64" data-name="Group 64" transform="translate(-140 -102)">
                      <g id="LINE" transform="translate(140 102)">
                          <path class="fero-logo-color" id="Path_51" data-name="Path 51" d="M344.3,441h.2l.167,0,.133,0q.13-.006.259-.018c.08-.008.159-.017.238-.03a3.108,3.108,0,0,0,.507-.122,2.378,2.378,0,0,0,.833-.479,3.081,3.081,0,0,0,.361-.378c.051-.063.1-.127.147-.193s.1-.144.147-.218.076-.121.112-.182c.05-.083.1-.167.147-.251l2.169-3.757H334.7v-7.045h15.444l.167,0,.133,0q.13-.006.259-.018c.08-.008.159-.017.238-.03a3.105,3.105,0,0,0,.507-.122,2.376,2.376,0,0,0,.833-.479,3.076,3.076,0,0,0,.361-.378c.051-.063.1-.127.147-.193s.1-.144.147-.218.076-.121.112-.182c.05-.083.1-.167.147-.251l2.169-3.758H327.18v31H334.7V441Z" transform="translate(-327.18 -422.683)" fill="#fff" style="fill: rgb(16, 45, 77);"></path>
                      </g>
                      <g id="LINE-2" data-name="LINE" transform="translate(178.515 102)">
                          <path class="fero-logo-color" id="Path_52" data-name="Path 52" d="M676.085,435.365h-15.03v-7.045h16.384l.167,0,.133,0q.13-.006.259-.018c.08-.008.159-.017.238-.03a3.1,3.1,0,0,0,.507-.122,2.376,2.376,0,0,0,.833-.479,3.077,3.077,0,0,0,.361-.378q.077-.094.147-.193c.051-.071.1-.144.147-.218s.075-.121.112-.182c.05-.083.1-.167.147-.251l2.169-3.758H653.54v31h23.9l.167,0,.133,0q.13-.006.259-.018c.08-.008.159-.017.238-.03a3.108,3.108,0,0,0,.507-.122,2.378,2.378,0,0,0,.833-.479,3.077,3.077,0,0,0,.361-.378c.051-.063.1-.127.147-.193s.1-.144.147-.218.075-.121.112-.182c.05-.083.1-.167.147-.251l2.169-3.758H661.055V441h9.808l.167,0,.133,0q.13-.006.259-.018c.08-.008.159-.017.238-.03a3.11,3.11,0,0,0,.507-.122,2.377,2.377,0,0,0,.833-.479,3.078,3.078,0,0,0,.361-.378c.051-.063.1-.127.147-.193s.1-.144.147-.218.076-.121.112-.182c.05-.083.1-.167.147-.251Z" transform="translate(-653.54 -422.683)" fill="#fff" style="fill: rgb(16, 45, 77);"></path>
                      </g>
                      <path class="fero-logo-color" id="Path_53" data-name="Path 53" d="M1011.4,440.815q.208-.051.415-.1c.126-.033.252-.068.378-.1.273-.078.543-.164.81-.259q.371-.132.731-.29a8.457,8.457,0,0,0,1.042-.546,6.8,6.8,0,0,0,.88-.646,5.684,5.684,0,0,0,1.289-1.607,6.765,6.765,0,0,0,.438-1,8.415,8.415,0,0,0,.305-1.133c.051-.259.092-.52.124-.781.035-.283.059-.568.076-.853q.011-.2.018-.4.007-.216.011-.432c0-.2,0-.393,0-.59h0v-.238h0c0-.246,0-.492-.006-.737q0-.254-.014-.507-.009-.233-.024-.465c-.022-.337-.054-.672-.1-1.007-.042-.309-.1-.616-.163-.92a9.121,9.121,0,0,0-.29-1.031,7.411,7.411,0,0,0-.388-.918,6.239,6.239,0,0,0-.486-.805,5.494,5.494,0,0,0-1.275-1.28,6.205,6.205,0,0,0-.8-.49,7.386,7.386,0,0,0-.918-.391,9.12,9.12,0,0,0-1.032-.293c-.3-.068-.613-.122-.922-.165-.335-.046-.672-.079-1.009-.1q-.234-.015-.469-.024-.256-.01-.512-.014l-.413,0-.569,0H987.86v31h7.515V441h4.578l.167,0,.133,0q.13.006.259.018t.239.03a3.093,3.093,0,0,1,.507.122,2.371,2.371,0,0,1,.833.479,3.072,3.072,0,0,1,.361.378q.077.094.147.193t.147.218q.058.09.112.182c.05.083.1.167.147.251l5.152,8.924.1.174.086.144.07.113q.07.11.145.215t.145.192a3.094,3.094,0,0,0,.359.378,2.372,2.372,0,0,0,.831.482,3.081,3.081,0,0,0,.508.124q.12.019.241.031t.262.019c.071,0,.142,0,.214.006l.291,0h6.508L1010.6,441l.465-.106Zm-.994-8.269c0,.06,0,.119,0,.179s0,.1,0,.157,0,.09,0,.135,0,.076-.006.113q-.007.1-.018.2c-.007.065-.016.129-.026.193s-.021.121-.035.181a2.652,2.652,0,0,1-.123.4,2.032,2.032,0,0,1-.175.344,1.708,1.708,0,0,1-.227.284,1.686,1.686,0,0,1-.284.228,2.024,2.024,0,0,1-.344.176,2.617,2.617,0,0,1-.4.123c-.091.02-.184.037-.277.05s-.2.024-.3.03c-.083.005-.167.008-.25.01-.113,0-.226,0-.338,0H995.375v-7.045h12.391l.157,0,.135,0,.113.006q.1.007.2.018t.193.026q.091.015.181.035a2.663,2.663,0,0,1,.4.123,2.025,2.025,0,0,1,.344.175,1.665,1.665,0,0,1,.513.511,2.024,2.024,0,0,1,.176.345,2.626,2.626,0,0,1,.124.4c.02.091.037.184.049.277s.024.2.03.3c.005.083.008.167.01.25,0,.113,0,.226,0,.339Z" transform="translate(-769.891 -320.683)" fill="#fff" style="fill: rgb(16, 45, 77);"></path>
                      <path id="Path_54" data-name="Path 54" d="M1361.138,431.512c0-.137,0-.274,0-.41,0-.169-.007-.338-.014-.507s-.014-.31-.024-.465c-.022-.337-.054-.672-.1-1.007-.042-.309-.1-.616-.163-.92a9.146,9.146,0,0,0-.29-1.031,7.421,7.421,0,0,0-.388-.918,6.245,6.245,0,0,0-.486-.805,5.493,5.493,0,0,0-1.275-1.28,6.214,6.214,0,0,0-.8-.49,7.4,7.4,0,0,0-.918-.391,9.121,9.121,0,0,0-1.031-.293c-.3-.068-.613-.122-.922-.165-.335-.046-.672-.079-1.009-.1q-.234-.015-.469-.024-.256-.01-.512-.014l-.413,0-.569,0h-12.212l-.565,0-.411,0c-.169,0-.338.008-.507.014s-.31.014-.465.024c-.337.022-.672.054-1.006.1-.309.042-.616.1-.92.163a9.133,9.133,0,0,0-1.031.29,7.4,7.4,0,0,0-.918.388,6.208,6.208,0,0,0-.805.486,5.5,5.5,0,0,0-1.28,1.275,6.2,6.2,0,0,0-.49.8,7.37,7.37,0,0,0-.391.918,9.014,9.014,0,0,0-.293,1.032c-.068.3-.122.613-.165.922-.046.335-.079.672-.1,1.009q-.016.234-.024.469c-.007.17-.011.341-.015.512q0,.206,0,.413c0,.19,0,.379,0,.569v12.212c0,.188,0,.377,0,.565q0,.205,0,.41,0,.254.014.507.009.233.024.465c.022.336.054.672.1,1.006.042.309.1.616.163.92a9.122,9.122,0,0,0,.29,1.031,7.382,7.382,0,0,0,.388.919,6.229,6.229,0,0,0,.486.805,5.5,5.5,0,0,0,1.275,1.28,6.206,6.206,0,0,0,.8.49,7.4,7.4,0,0,0,.918.391,9.145,9.145,0,0,0,1.032.293c.3.068.613.122.922.165.335.046.671.079,1.009.1q.234.015.469.024.256.01.512.015l.413,0,.568,0h12.777l.41,0q.254,0,.507-.014.233-.009.465-.024c.337-.022.672-.054,1.006-.1.309-.042.616-.1.92-.163a9.146,9.146,0,0,0,1.031-.29,7.434,7.434,0,0,0,.918-.388,6.238,6.238,0,0,0,.805-.486,5.5,5.5,0,0,0,1.28-1.275,6.216,6.216,0,0,0,.489-.8,7.365,7.365,0,0,0,.391-.918,9.11,9.11,0,0,0,.293-1.032c.068-.3.122-.613.165-.922.046-.335.079-.672.1-1.009.01-.156.018-.312.025-.469s.011-.341.015-.512c0-.138,0-.275,0-.413q0-.284,0-.569V432.077Q1361.139,431.794,1361.138,431.512Zm-6.574,12.777q0,.113,0,.226,0,.082,0,.164c0,.13-.007.26-.015.389s-.022.269-.04.4-.038.247-.065.369a3.563,3.563,0,0,1-.164.539,2.723,2.723,0,0,1-.233.459,2.221,2.221,0,0,1-.681.684,2.7,2.7,0,0,1-.459.235,3.525,3.525,0,0,1-.54.165c-.122.027-.245.049-.369.066s-.269.031-.4.04-.262.013-.392.016l-.165,0h-14.318V432.077c0-.075,0-.151,0-.226q0-.082,0-.164c0-.13.007-.26.015-.389s.022-.269.04-.4.038-.247.065-.369a3.528,3.528,0,0,1,.164-.539,2.709,2.709,0,0,1,.233-.459,2.22,2.22,0,0,1,.681-.683,2.7,2.7,0,0,1,.459-.235,3.518,3.518,0,0,1,.54-.165c.122-.027.245-.049.369-.066s.269-.031.4-.04.261-.013.392-.016l.165,0h14.318Z" transform="translate(-1071.778 -320.683)" fill="#1ab7d0"></path>
                      <g id="ARC" transform="translate(272.587 111.864)">
                          <path id="Path_55" data-name="Path 55" d="M1453.227,516.261v-8.723a1.275,1.275,0,1,0-2.55,0v8.723a1.275,1.275,0,1,0,2.55,0Z" transform="translate(-1450.677 -506.263)" fill="#1ab7d0"></path>
                      </g>
                      <g id="ARC-2" data-name="ARC" transform="translate(277.686 114.682)">
                          <path id="Path_56" data-name="Path 56" d="M1496.439,531.418V534.5a1.275,1.275,0,1,1-2.55,0v-3.086a1.275,1.275,0,1,1,2.55,0Z" transform="translate(-1493.889 -530.143)" fill="#1ab7d0"></path>
                      </g>
                      <g id="ARC-3" data-name="ARC" transform="translate(267.487 114.682)">
                          <path id="Path_57" data-name="Path 57" d="M1407.466,534.5v-3.086a1.275,1.275,0,1,1,2.55,0V534.5a1.275,1.275,0,1,1-2.55,0Z" transform="translate(-1407.466 -530.143)" fill="#1ab7d0"></path>
                      </g>
                   </g>
                </svg>