 <svg class="svg-icon-height" id="Icon_simple-instagram" data-name="Icon simple-instagram" xmlns="http://www.w3.org/2000/svg" viewBox="0 0 30.565 30.565">
    <path id="Icon_simple-instagram-2" data-name="Icon simple-instagram" d="M15.283,0c-4.152,0-4.67.019-6.3.092A11.269,11.269,0,0,0,5.273.8,7.484,7.484,0,0,0,2.565,2.565,7.457,7.457,0,0,0,.8,5.273a11.236,11.236,0,0,0-.711,3.71C.015,10.613,0,11.131,0,15.283s.019,4.67.092,6.3A11.276,11.276,0,0,0,.8,25.293,7.5,7.5,0,0,0,2.565,28a7.473,7.473,0,0,0,2.708,1.763,11.283,11.283,0,0,0,3.71.711c1.63.076,2.148.092,6.3.092s4.67-.019,6.3-.092a11.309,11.309,0,0,0,3.71-.711,7.81,7.81,0,0,0,4.47-4.47,11.276,11.276,0,0,0,.711-3.71c.076-1.63.092-2.148.092-6.3s-.019-4.67-.092-6.3a11.3,11.3,0,0,0-.711-3.71A7.5,7.5,0,0,0,28,2.565,7.446,7.446,0,0,0,25.293.8a11.243,11.243,0,0,0-3.71-.711C19.953.015,19.434,0,15.283,0Zm0,2.751c4.079,0,4.566.02,6.177.09A8.42,8.42,0,0,1,24.3,3.37a5.029,5.029,0,0,1,2.9,2.9,8.438,8.438,0,0,1,.526,2.836c.073,1.612.089,2.1.089,6.177s-.019,4.566-.094,6.177a8.6,8.6,0,0,1-.536,2.836,4.853,4.853,0,0,1-1.145,1.76A4.768,4.768,0,0,1,24.279,27.2a8.5,8.5,0,0,1-2.846.526c-1.623.073-2.1.089-6.188.089s-4.567-.019-6.188-.094a8.666,8.666,0,0,1-2.848-.536,4.733,4.733,0,0,1-1.756-1.145,4.641,4.641,0,0,1-1.146-1.758,8.673,8.673,0,0,1-.535-2.846c-.057-1.6-.078-2.1-.078-6.169s.02-4.567.078-6.191a8.663,8.663,0,0,1,.535-2.845A4.53,4.53,0,0,1,4.452,4.469,4.52,4.52,0,0,1,6.209,3.325a8.459,8.459,0,0,1,2.829-.536c1.624-.057,2.1-.076,6.188-.076l.057.038Zm0,4.684a7.848,7.848,0,1,0,7.848,7.848A7.847,7.847,0,0,0,15.283,7.435Zm0,12.942a5.094,5.094,0,1,1,5.094-5.094A5.093,5.093,0,0,1,15.283,20.377ZM25.275,7.126a1.834,1.834,0,1,1-1.834-1.833A1.835,1.835,0,0,1,25.275,7.126Z"></path>
</svg>