<svg class="svg-icon-height" id="Icon_zocial-linkedin" data-name="Icon zocial-linkedin" xmlns="http://www.w3.org/2000/svg" viewBox="0 0 31.7 30.292">
	<path id="Icon_zocial-linkedin-2" data-name="Icon zocial-linkedin" d="M-.18,3.735A3.3,3.3,0,0,1,.891,1.21,3.929,3.929,0,0,1,3.675.216,3.812,3.812,0,0,1,6.4,1.2,3.451,3.451,0,0,1,7.47,3.827a3.222,3.222,0,0,1-1.04,2.448,3.936,3.936,0,0,1-2.815,1.01H3.584A3.745,3.745,0,0,1,.86,6.274,3.391,3.391,0,0,1-.18,3.735Zm.4,26.774V10.069H7.011v20.44H.218Zm10.556,0h6.793V19.1a4.4,4.4,0,0,1,.245-1.652,4.438,4.438,0,0,1,1.3-1.759,3.325,3.325,0,0,1,2.188-.719q3.427,0,3.427,4.62V30.508H31.52V18.789q0-4.529-2.142-6.869a7.306,7.306,0,0,0-5.661-2.341,6.944,6.944,0,0,0-6.15,3.4v.061h-.031l.031-.061V10.069H10.774q.061.979.061,6.089t-.061,14.351Z" transform="translate(0.18 -0.216)"></path>
</svg>