<svg xmlns="http://www.w3.org/2000/svg" width="80px" height="80px" viewBox="0 0 305.394 305.394">
                      <g id="Group_11" data-name="Group 11" transform="translate(-368.684 -928.378)">
                        <path id="Path_54" data-name="Path 54" d="M1635.52,509.659q-.012-2.021-.045-4.043-.043-2.5-.14-5-.089-2.292-.234-4.581c-.214-3.315-.531-6.623-.98-9.915-.414-3.04-.94-6.066-1.6-9.062a89.855,89.855,0,0,0-2.86-10.161,73.129,73.129,0,0,0-3.825-9.047,61.467,61.467,0,0,0-4.791-7.935,54.119,54.119,0,0,0-12.563-12.613,61.216,61.216,0,0,0-7.928-4.822,72.708,72.708,0,0,0-9.045-3.854,89.659,89.659,0,0,0-10.164-2.884c-3-.671-6.036-1.2-9.083-1.623-3.3-.453-6.615-.775-9.938-.993q-2.307-.15-4.618-.24-2.52-.1-5.041-.143-2.035-.035-4.069-.044c-1.867-.012-3.734-.013-5.6-.015H1422.683c-1.855,0-3.711,0-5.566.015q-2.023.01-4.045.043-2.5.044-5,.141-2.292.089-4.581.235c-3.313.213-6.623.53-9.913.979-3.042.415-6.067.94-9.064,1.6a89.935,89.935,0,0,0-10.161,2.86,73.013,73.013,0,0,0-9.048,3.826,61.373,61.373,0,0,0-7.935,4.79,54.166,54.166,0,0,0-12.613,12.564,61.1,61.1,0,0,0-4.822,7.927,72.635,72.635,0,0,0-3.854,9.045,89.642,89.642,0,0,0-2.884,10.165c-.671,3-1.2,6.035-1.623,9.082-.454,3.3-.776,6.616-.992,9.938q-.152,2.307-.241,4.618-.1,2.52-.143,5.042-.035,2.033-.044,4.068c-.012,1.867-.013,3.734-.015,5.6V635.534c0,1.856,0,3.712.015,5.568q.01,2.021.043,4.044.044,2.5.141,5,.088,2.291.235,4.581c.214,3.315.53,6.623.979,9.915.415,3.04.941,6.066,1.6,9.063a90.168,90.168,0,0,0,2.86,10.16,73.123,73.123,0,0,0,3.826,9.049,61.449,61.449,0,0,0,4.79,7.934,54.1,54.1,0,0,0,12.564,12.613,61.146,61.146,0,0,0,7.927,4.824,72.911,72.911,0,0,0,9.045,3.853,89.925,89.925,0,0,0,10.165,2.886c3,.67,6.035,1.2,9.083,1.622,3.3.455,6.615.776,9.937.993q2.307.15,4.618.24,2.52.1,5.042.143,2.033.037,4.068.044,2.8.017,5.6.015H1542.99q2.783,0,5.568-.014,2.021-.012,4.044-.044,2.5-.044,5-.141,2.291-.089,4.581-.234c3.315-.214,6.623-.531,9.915-.98,3.04-.414,6.066-.941,9.063-1.6a89.991,89.991,0,0,0,10.16-2.86,73.269,73.269,0,0,0,9.049-3.825,61.577,61.577,0,0,0,7.935-4.791,54.173,54.173,0,0,0,12.613-12.563,61.33,61.33,0,0,0,4.823-7.928,72.891,72.891,0,0,0,3.853-9.045,89.886,89.886,0,0,0,2.886-10.164c.671-3,1.2-6.036,1.622-9.083.455-3.3.776-6.616.993-9.938q.15-2.307.239-4.618.1-2.52.143-5.041.036-2.035.044-4.069.018-2.8.015-5.6V515.227Q1635.532,512.444,1635.52,509.659Zm-64.767,125.875q0,1.114-.005,2.229c0,.539-.008,1.079-.018,1.618-.022,1.28-.067,2.559-.149,3.837-.086,1.328-.214,2.654-.393,3.973-.166,1.219-.378,2.43-.644,3.631a34.794,34.794,0,0,1-1.612,5.314,26.826,26.826,0,0,1-2.3,4.524,21.907,21.907,0,0,1-6.713,6.734,26.583,26.583,0,0,1-4.525,2.312,34.638,34.638,0,0,1-5.319,1.623c-1.2.268-2.415.481-3.633.65-1.321.181-2.647.309-3.976.4-1.287.085-2.575.13-3.864.153-.542.009-1.085.014-1.626.017q-1.12.007-2.24.006H1394.92V515.227c0-.743,0-1.486.006-2.229,0-.54.008-1.079.017-1.618.022-1.28.068-2.559.151-3.837.086-1.328.213-2.654.393-3.973.166-1.218.378-2.43.644-3.631a34.587,34.587,0,0,1,1.613-5.314,26.646,26.646,0,0,1,2.3-4.524,21.873,21.873,0,0,1,6.712-6.733,26.551,26.551,0,0,1,4.525-2.312,34.529,34.529,0,0,1,5.319-1.624c1.2-.269,2.415-.481,3.634-.649,1.32-.181,2.646-.31,3.975-.4,1.287-.085,2.575-.13,3.865-.152.542-.01,1.084-.015,1.626-.019.747,0,1.494,0,2.24-.006h138.815Z" transform="translate(-961.455 505.695)" fill="#1ab7d0"/>
                        <g id="ARC" transform="translate(508.822 1025.549)">
                          <path id="Path_55" data-name="Path 55" d="M1475.8,604.756V518.823a12.56,12.56,0,1,0-25.119,0v85.933a12.56,12.56,0,0,0,25.119,0Z" transform="translate(-1450.677 -506.263)" fill="#1ab7d0"/>
                        </g>
                        <g id="ARC-2" data-name="ARC" transform="translate(559.061 1053.313)">
                          <path id="Path_56" data-name="Path 56" d="M1519.008,542.7v30.407a12.56,12.56,0,0,1-25.12,0V542.7a12.56,12.56,0,0,1,25.12,0Z" transform="translate(-1493.888 -530.143)" fill="#1ab7d0"/>
                        </g>
                        <g id="ARC-3" data-name="ARC" transform="translate(458.584 1053.313)">
                          <path id="Path_57" data-name="Path 57" d="M1407.466,573.109V542.7a12.56,12.56,0,1,1,25.119,0v30.407a12.56,12.56,0,1,1-25.119,0Z" transform="translate(-1407.466 -530.143)" fill="#1ab7d0"/>
                        </g>
                      </g>
</svg>