<svg class="svg-icon-height" id="Icon_zocial-twitter" data-name="Icon zocial-twitter" xmlns="http://www.w3.org/2000/svg" viewBox="0 0 36.999 30.081">
	<path id="Icon_zocial-twitter-2" data-name="Icon zocial-twitter" d="M-4.738,26.322q.9.088,1.8.089a14.922,14.922,0,0,0,9.445-3.247,7.314,7.314,0,0,1-4.421-1.506A7.4,7.4,0,0,1-.587,17.9a7.153,7.153,0,0,0,1.414.121,7.435,7.435,0,0,0,2.015-.271,7.319,7.319,0,0,1-4.377-2.6,7.355,7.355,0,0,1-1.73-4.829v-.091a7.121,7.121,0,0,0,3.459.932A7.452,7.452,0,0,1-2.286,8.468,7.4,7.4,0,0,1-3.2,4.844,7.373,7.373,0,0,1-2.151,1.023a21.1,21.1,0,0,0,6.9,5.611,21.367,21.367,0,0,0,8.738,2.331,8.535,8.535,0,0,1-.211-1.745,7.3,7.3,0,0,1,2.226-5.354A7.336,7.336,0,0,1,20.891-.359a7.293,7.293,0,0,1,5.534,2.407A15.273,15.273,0,0,0,31.238.183,7.235,7.235,0,0,1,27.93,4.394a15.5,15.5,0,0,0,4.332-1.2A14.564,14.564,0,0,1,28.5,7.131v.994a21.767,21.767,0,0,1-.887,6.091,21.674,21.674,0,0,1-2.707,5.837A23.239,23.239,0,0,1,20.559,25,19.267,19.267,0,0,1,14.5,28.444a22.151,22.151,0,0,1-7.6,1.277A21.311,21.311,0,0,1-4.738,26.322Z" transform="translate(4.738 0.359)"></path>
</svg>